<svg xmlns:xlink="http://www.w3.org/1999/xlink" xmlns="http://www.w3.org/2000/svg" id="Layer_1" data-name="Layer 1" viewBox="0 0 86.7 196.9" width="86.7"  height="196.9" ><defs><style>.cls-1{fill:#1493ce;}.cls-2{fill:#fff;}</style></defs><g id="Layer_1-2"><rect class="cls-1" x="42.7" y="146.9" width="2" height="50"/></g><path class="cls-2" d="M76.9,30.72H46.73a.91.91,0,0,0-.9.92l0,5.73A1,1,0,0,0,46,38a.91.91,0,0,0,.65.27H76.9a.92.92,0,0,0,.91-.93V31.65A.92.92,0,0,0,76.9,30.72ZM76,36.44H47.6l0-3.85H76Z"/><path class="cls-2" d="M76.9,40.89H46.69a.93.93,0,0,0-.91.94v5.73a.92.92,0,0,0,.91.93H76.9a.92.92,0,0,0,.91-.93V41.83A.92.92,0,0,0,76.9,40.89ZM76,46.62H47.59V42.77H76Z"/><path class="cls-2" d="M76.9,51.71H46.69a.93.93,0,0,0-.91.94v5.72a.93.93,0,0,0,.91.94H76.9a.92.92,0,0,0,.91-.94V52.65A.92.92,0,0,0,76.9,51.71ZM76,57.44H47.59V53.58H76Z"/><path class="cls-2" d="M43,17.16H36.8a.93.93,0,0,0-.91.94V28.86a.93.93,0,0,0,.91.94H43a.92.92,0,0,0,.91-.94V18.1A.92.92,0,0,0,43,17.16Zm-.9,10.77H37.7V19h4.36Z"/><path class="cls-2" d="M34.06,17.16H27.89a.92.92,0,0,0-.9.94V28.86a.92.92,0,0,0,.9.94h6.17a.93.93,0,0,0,.91-.94V18.1A.93.93,0,0,0,34.06,17.16Zm-.91,10.77H28.8V19h4.35Z"/><path class="cls-2" d="M25.16,17.16H19a.93.93,0,0,0-.91.94V28.86a.93.93,0,0,0,.91.94h6.17a.93.93,0,0,0,.91-.94V18.1A.93.93,0,0,0,25.16,17.16Zm-.91,10.77H19.9V19h4.35Z"/><path class="cls-2" d="M16.26,17.16H10.09a.93.93,0,0,0-.91.94V28.86a.93.93,0,0,0,.91.94h6.17a.92.92,0,0,0,.9-.94V18.1A.92.92,0,0,0,16.26,17.16Zm-.91,10.77H11V19h4.35Z"/><path class="cls-2" d="M43,31.43H36.8a.93.93,0,0,0-.91.94V43.13a.93.93,0,0,0,.91.94H43a.92.92,0,0,0,.91-.94V32.37A.92.92,0,0,0,43,31.43Zm-.9,10.77H37.7V33.3h4.36Z"/><path class="cls-2" d="M34.06,31.43H27.89a.92.92,0,0,0-.9.94V43.13a.92.92,0,0,0,.9.94h6.17a.93.93,0,0,0,.91-.94V32.37A.93.93,0,0,0,34.06,31.43ZM33.15,42.2H28.8V33.3h4.35Z"/><path class="cls-2" d="M25.16,31.43H19a.93.93,0,0,0-.91.94V43.13a.93.93,0,0,0,.91.94h6.17a.93.93,0,0,0,.91-.94V32.37A.93.93,0,0,0,25.16,31.43ZM24.25,42.2H19.9V33.3h4.35Z"/><path class="cls-2" d="M16.26,31.43H10.09a.93.93,0,0,0-.91.94V43.13a.93.93,0,0,0,.91.94h6.17a.92.92,0,0,0,.9-.94V32.37A.92.92,0,0,0,16.26,31.43ZM15.35,42.2H11V33.3h4.35Z"/><path class="cls-2" d="M43,45.7H36.8a.93.93,0,0,0-.91.94V57.4a.93.93,0,0,0,.91.94H43a.92.92,0,0,0,.91-.94V46.64A.92.92,0,0,0,43,45.7Zm-.9,10.77H37.7v-8.9h4.36Z"/><path class="cls-2" d="M34.06,45.7H27.89a.92.92,0,0,0-.9.94V57.4a.92.92,0,0,0,.9.94h6.17A.93.93,0,0,0,35,57.4V46.64A.93.93,0,0,0,34.06,45.7Zm-.91,10.77H28.8v-8.9h4.35Z"/><path class="cls-2" d="M25.16,45.7H19a.93.93,0,0,0-.91.94V57.4a.93.93,0,0,0,.91.94h6.17a.93.93,0,0,0,.91-.94V46.64A.93.93,0,0,0,25.16,45.7Zm-.91,10.77H19.9v-8.9h4.35Z"/><path class="cls-2" d="M16.26,45.7H10.09a.93.93,0,0,0-.91.94V57.4a.93.93,0,0,0,.91.94h6.17a.92.92,0,0,0,.9-.94V46.64A.92.92,0,0,0,16.26,45.7Zm-.91,10.77H11v-8.9h4.35Z"/><path class="cls-2" d="M84.68,83.91h-1V27.64a1.39,1.39,0,0,0-1-1.34L48,15.29V2.66a1.41,1.41,0,0,0-.49-1.07,1.35,1.35,0,0,0-1.12-.31L5.65,9.08a1.41,1.41,0,0,0-1.11,1.38V83.91h-2a1.41,1.41,0,0,0,0,2.81H84.68a1.41,1.41,0,0,0,0-2.81ZM81,28.68V83.81H48V18.22Zm-73.75-17,38-7.28V83.81h-38Z"/></svg>