<svg xmlns:xlink="http://www.w3.org/1999/xlink" xmlns="http://www.w3.org/2000/svg" id="Layer_1" data-name="Layer 1" viewBox="0 0 86.7 196.9" width="86.7"  height="196.9" ><defs><style>.cls-1{fill:#1493ce;}.cls-2{fill:#fff;}</style></defs><g id="Layer_1-2"><rect class="cls-1" x="42.7" y="146.9" width="2" height="50"/></g><path class="cls-2" d="M33.93,18.62a2.45,2.45,0,0,0,3.47,0,8.62,8.62,0,0,1,12,0,2.46,2.46,0,0,0,3.43-3.52,13.57,13.57,0,0,0-18.81,0A2.46,2.46,0,0,0,33.93,18.62Z"/><path class="cls-2" d="M24.51,8.29a2.46,2.46,0,1,0,3.43,3.52,22.22,22.22,0,0,1,30.82.09,2.46,2.46,0,0,0,4.18-1.75,2.43,2.43,0,0,0-.75-1.76A27.15,27.15,0,0,0,24.51,8.29Z"/><circle class="cls-2" cx="31.41" cy="63.34" r="2.39"/><circle class="cls-2" cx="39.16" cy="63.34" r="2.39"/><path class="cls-2" d="M55.32,70.41H30.78a2.11,2.11,0,0,0,0,4.21H55.32a2.11,2.11,0,0,0,0-4.21Z"/><path class="cls-2" d="M59.54,86.85H27.16a9.73,9.73,0,0,1-9.71-9.71V44.76a9.72,9.72,0,0,1,9.71-9.71H59.54a9.72,9.72,0,0,1,9.71,9.71V77.14A9.73,9.73,0,0,1,59.54,86.85ZM27.16,39.94a4.82,4.82,0,0,0-4.82,4.82V77.14A4.82,4.82,0,0,0,27.16,82H59.54a4.82,4.82,0,0,0,4.82-4.82V44.76a4.82,4.82,0,0,0-4.82-4.82Z"/><circle class="cls-2" cx="43.38" cy="25.51" r="2.9"/></svg>