<svg xmlns="http://www.w3.org/2000/svg" xmlns:xlink="http://www.w3.org/1999/xlink" version="1.1" id="Layer_1" x="0px" y="0px" viewBox="0 0 86.6 196.8" style="enable-background:new 0 0 86.6 196.8;" xml:space="preserve" width="86.6"  height="196.8" >
<style type="text/css">
	.st0{fill:#1493CE;}
	.st1{fill:#FFFFFF;}
</style>
<g id="Layer_1_1_">
	<g>
		<g>
			<rect x="41.4" y="146.8" class="st0" width="2" height="50"/>
		</g>
		<g>
			<path class="st1" d="M30.9,35.3L30.9,35.3c0.9,0,1.6-0.7,1.6-1.6c0-0.4-0.2-0.8-0.5-1.1C26.1,26.7,26.1,17,32,11     c0.3-0.3,0.5-0.7,0.5-1.1c0-0.4-0.1-0.8-0.4-1.1S31.4,8.3,31,8.3s-0.8,0.1-1.2,0.5l0,0c-7.2,7.2-7.2,18.9,0,26.1     C30.1,35.2,30.5,35.3,30.9,35.3z"/>
			<path class="st1" d="M55.2,34.9c0.3,0.3,0.7,0.5,1.1,0.5c0.4,0,0.8-0.2,1.1-0.5c3.5-3.5,5.4-8.1,5.4-13s-1.9-9.6-5.4-13     c-0.3-0.3-0.7-0.5-1.1-0.5l0,0c-0.4,0-0.8,0.2-1.1,0.5c-0.6,0.6-0.6,1.6,0,2.2c2.9,2.9,4.5,6.7,4.5,10.8s-1.6,7.9-4.5,10.8     C54.6,33.2,54.6,34.2,55.2,34.9z"/>
			<path class="st1" d="M23.4,43.7L23.4,43.7c0.9,0,1.6-0.7,1.6-1.6c0-0.4-0.2-0.8-0.5-1.1c-10.6-10.5-10.6-27.7,0-38.3     C24.8,2.4,25,2,25,1.6s-0.2-0.8-0.5-1.1c-0.6-0.6-1.6-0.6-2.2,0c-11.8,11.8-11.8,31,0,42.8C22.5,43.5,22.9,43.7,23.4,43.7z"/>
			<path class="st1" d="M70.7,21.9c0,7.2-2.8,14-7.9,19.1c-0.6,0.6-0.6,1.6,0,2.2l0,0c0.3,0.3,0.7,0.5,1.1,0.5s0.8-0.2,1.1-0.5     c11.8-11.8,11.8-31,0-42.8c-0.6-0.6-1.6-0.6-2.3,0c-0.3,0.3-0.5,0.7-0.5,1.1s0.2,0.8,0.5,1.1C67.9,7.8,70.7,14.6,70.7,21.9z"/>
			<path class="st1" d="M80.1,83.5H67.8l-19-56.1c3.1-2.8,3.4-7.6,0.6-10.8c-1.4-1.5-3.2-2.4-5.3-2.6c-2-0.1-4,0.6-5.5,1.9     c-1.5,1.4-2.4,3.2-2.6,5.3c-0.1,2,0.6,4,1.9,5.5c0.2,0.2,0.4,0.4,0.6,0.6L19.4,83.5h-13c-0.9,0-1.6,0.7-1.6,1.6s0.7,1.6,1.6,1.6     h73.7c0.9,0,1.6-0.7,1.6-1.6C81.7,84.3,80.9,83.5,80.1,83.5z M45.9,61.5l8.2-8.4l8.7,25.6L45.9,61.5z M43.6,63.8L63,83.5H24.2     L43.6,63.8z M46.8,25c-0.8,0.8-2,1.3-3.2,1.3c-2.5,0-4.5-2-4.5-4.5s2-4.5,4.5-4.5l0,0c1.2,0,2.3,0.5,3.2,1.3     c0.8,0.8,1.3,2,1.3,3.2S47.6,24.2,46.8,25z M43.6,59.3l-9.4-9.5l7-20.6c1.5,0.5,3.1,0.5,4.6,0l7,20.6L43.6,59.3z M24.4,78.8     l8.7-25.7l8.3,8.4L24.4,78.8z"/>
		</g>
	</g>
</g>
</svg>