<svg xmlns="http://www.w3.org/2000/svg" xmlns:xlink="http://www.w3.org/1999/xlink" version="1.1" id="Layer_1" x="0px" y="0px" viewBox="0 0 512.4 193.9" style="enable-background:new 0 0 512.4 193.9;" xml:space="preserve" width="512.4"  height="193.9" >
<style type="text/css">
	.st0{fill:#FFFFFF;}
</style>
<g>
	<path class="st0" d="M169.1,191.7l0-129.9l40.7-13.2l0,143.1H169.1z"/>
	<polygon class="st0" points="169.1,42.1 209.8,28.9 209.8,0 169.1,0  "/>
	<path class="st0" d="M268.2,85.6v53.1c0,7.5,2,13.1,5.9,16.6c3.9,3.5,9.1,5.3,15.3,5.3c3.9,0,8.4-0.6,13.5-1.9v31.5   c-6.5,2.5-14.3,3.8-23.4,3.8c-16.9,0-29.8-4.8-38.6-14.3c-8.9-9.5-13.3-22.9-13.3-40.1V23.2L268.2,10v45.2h34.7v30.4H268.2z"/>
	<path class="st0" d="M446.2,126.8h-89.9c0.7,12.7,4,22,10,27.9c5.9,5.8,14.7,8.8,26.4,8.8c7,0,14-1.2,21-3.5   c7-2.3,13.5-5.7,19.4-10.2l10.8,27.5c-6.5,5.2-14.5,9.3-24.1,12.3c-9.6,3-19.3,4.4-28.9,4.4c-23,0-41-6.3-54.1-19   c-13.1-12.7-19.7-29.9-19.7-51.8c0-13.8,2.8-26.2,8.5-37c5.7-10.9,13.6-19.3,23.8-25.3c10.2-6,21.8-9,34.7-9   c19.2,0,34.4,6.2,45.5,18.7c11.1,12.5,16.7,29.3,16.7,50.5V126.8z M366.4,87c-4.8,4.5-7.9,11-9.3,19.7h54.1   C409,89,400.3,80.2,385.1,80.2C377.3,80.2,371.1,82.5,366.4,87z"/>
	<rect class="st0" width="117.3" height="33.1"/>
	<path class="st0" d="M117.3,0L93.2,33.1L5,155.2c-2.7,3.8-4.2,8.3-4.2,13v1.3c0,12.3,10,22.2,22.2,22.2h0l24.3-33.4l93-127.9V0   H117.3z"/>
	<g>
		<polygon class="st0" points="70.3,158.6 46.2,191.7 140.3,191.7 140.3,158.6   "/>
	</g>
	<polygon class="st0" points="471.8,13 471.8,23.2 471.8,55.2 471.8,56 471.8,85.6 471.8,139.5 471.8,193.1 512.4,193.1    512.4,138.7 512.4,85.6 512.4,56 512.4,55.2 512.4,13 512.4,10 512.4,0  "/>
</g>
</svg>